# xmcd
#
# Track frame offsets:
#	150
#	12689
#	27548
#	41247
#	53503
#	76903
#	92939
#	112267
#	124518
#	140740
#	159591
#	177341
#	193717
#	208506
#	227228
#
# Disc length: 3264 seconds
#
# Revision: 0
# Processed by: cddbd v1.5.1PL0 Copyright (c) Steve Scherf et al.
# Submitted via: dBpowerAMP V4.0
#
DISCID=d80cbe0f
DTITLE=Linda Jacob and The Road Riders - Dark Side of the Road's
DYEAR=1900
DGENRE=Country
TTITLE0=When love starts talkin'
TTITLE1=Eye of a storm
TTITLE2=What if I do
TTITLE3=Walk in the country
TTITLE4=Strawberry Wine
TTITLE5=Wyld undknown
TTITLE6=He thinks he'll keep her
TTITLE7=Clutter Billy
TTITLE8=Je reviendrai
TTITLE9=Globe trotter
TTITLE10=Reste toi même
TTITLE11=Laisse moi jouer un rôle
TTITLE12=Petit bout de moi
TTITLE13=Je cours
TTITLE14=Je passe mon chemin
EXTD=
EXTT0=
EXTT1=
EXTT2=
EXTT3=
EXTT4=
EXTT5=
EXTT6=
EXTT7=
EXTT8=
EXTT9=
EXTT10=
EXTT11=
EXTT12=
EXTT13=
EXTT14=
PLAYORDER=
